<?xml version="1.0" encoding="UTF-8" standalone="no"?>
<svg
   fill="#000000"
   viewBox="0 0 128 128"
   width="128"
   height="128"
   version="1.1"
   id="svg4"
   sodipodi:docname="timemarks-icon.svg"
   inkscape:version="1.1.2 (0a00cf5339, 2022-02-04)"
   inkscape:export-filename="/home/sakuremo/ドキュメント/chrome-extensions/youtube-bookmarker/assets/timemarks-icon.png"
   inkscape:export-xdpi="96"
   inkscape:export-ydpi="96"
   xmlns:inkscape="http://www.inkscape.org/namespaces/inkscape"
   xmlns:sodipodi="http://sodipodi.sourceforge.net/DTD/sodipodi-0.dtd"
   xmlns="http://www.w3.org/2000/svg"
   xmlns:svg="http://www.w3.org/2000/svg">
  <sodipodi:namedview
     id="namedview5"
     pagecolor="#505050"
     bordercolor="#ffffff"
     borderopacity="1"
     inkscape:pageshadow="0"
     inkscape:pageopacity="0"
     inkscape:pagecheckerboard="1"
     showgrid="false"
     inkscape:snap-grids="true"
     inkscape:zoom="2.56"
     inkscape:cx="60.742187"
     inkscape:cy="82.617187"
     inkscape:current-layer="svg4" />
  <defs
     id="defs8" />
  <path
     d="M 25.79,0 C 11.667109,0 -1.2799999e-6,11.667109 0,25.79 v 76.42 C 0,116.33289 11.667109,128 25.79,128 h 76.42 C 116.33289,128 128,116.33289 128,102.21 V 25.79 C 128,11.667109 116.33289,-1.2799999e-6 102.21,0 Z"
     id="path4774"
     style="stroke-width:1.28;stroke:none;fill:#505053;fill-opacity:1" />
  <path
     id="path2-3"
     d="m 38.000003,18 c -0.690625,0 -1.360595,0.07195 -2.01172,0.2051 -4.55786,0.93206 -7.98828,4.960525 -7.98828,9.7949 v 90 L 68.000008,103 108,118 V 28 c 0,-0.6875 -0.0713,-1.362305 -0.2051,-2.01172 -0.79892,-3.906735 -3.87646,-6.984275 -7.78319,-7.7832 C 99.360598,18.071925 98.690628,18 97.999998,18 Z m 30.000005,15 c 3.13154,-5e-6 5.71288,2.58135 5.71288,5.71289 v 13.57422 h 13.57423 c 3.13153,5e-6 5.71288,2.581354 5.71288,5.71289 10e-6,3.131536 -2.58134,5.712888 -5.71288,5.712888 h -13.57423 v 13.574224 c 0,3.131536 -2.58134,5.712888 -5.71288,5.712888 -3.13154,0 -5.71289,-2.581352 -5.71289,-5.712888 V 63.712888 H 48.712893 c -3.131545,0 -5.712895,-2.581344 -5.71289,-5.712888 0,-3.131536 2.58135,-5.71289 5.71289,-5.71289 H 62.287118 V 38.71289 c 0,-3.131535 2.58135,-5.712885 5.71289,-5.71289 z"
     style="fill:#000000;fill-opacity:1;stroke:none;stroke-width:0" />
  <path
     id="path2"
     d="M 34,14 C 27.976544,13.810999 23.219534,19.713714 24,25.53675 24,55.0245 24,84.51225 24,114 c 13.333333,-5 26.666667,-10 40,-15 13.333333,5 26.666667,10 40,15 -0.0348,-30.339602 0.0697,-60.682779 -0.0524,-91.020142 C 103.53115,17.367289 97.918966,13.298355 92.46325,14 72.9755,14 53.48775,14 34,14 Z m 30,15 c 3.778802,-0.110357 6.294863,3.749471 5.712888,7.24964 0,4.01249 0,8.02498 0,12.03747 4.904266,0.06967 9.826796,-0.144582 14.718793,0.117035 4.55327,0.712289 6.206857,7.246841 2.479561,9.996573 -2.884314,2.174709 -6.682311,1.019005 -10.027255,1.31217 -2.390366,0 -4.780733,0 -7.171099,0 -0.06967,4.904266 0.144579,9.826796 -0.117033,14.718793 -0.712284,4.553276 -7.246843,6.206854 -9.996572,2.479556 -2.174712,-2.884312 -1.019008,-6.682308 -1.312173,-10.02725 0,-2.390366 0,-4.780733 0,-7.171099 -4.904266,-0.06967 -9.826795,0.144579 -14.718792,-0.117033 -4.553281,-0.712281 -6.20685,-7.246844 -2.479555,-9.996574 2.884313,-2.17471 6.68231,-1.019005 10.027252,-1.312171 2.390365,0 4.78073,0 7.171095,0 0.06967,-4.904265 -0.14458,-9.826793 0.117034,-14.718789 C 58.907799,30.979527 61.355692,28.961828 64,29 Z"
     style="fill:#ffffff;fill-opacity:1;stroke:none;stroke-width:0" />
</svg>
