<?xml version="1.0" encoding="UTF-8" standalone="no"?>
<svg
   fill="#000000"
   viewBox="0 0 128 128"
   width="128"
   height="128"
   version="1.1"
   id="svg4"
   xmlns="http://www.w3.org/2000/svg"
   xmlns:svg="http://www.w3.org/2000/svg">
  <defs
     id="defs8" />
  <path
     id="path2"
     d="M 28,4 C 27.17125,4 26.367286,4.08634 25.585936,4.24612 20.116504,5.364592 16,10.19875 16,16 v 108 l 48,-18 48,18 V 16 c 0,-0.825 -0.0856,-1.634766 -0.24612,-2.414064 -0.9587,-4.688082 -4.65176,-8.38113 -9.33984,-9.33984 C 101.63271,4.08631 100.82875,4 100,4 Z m 36,18 c 3.757853,-6e-6 6.855466,3.09762 6.855466,6.855468 V 45.144532 H 87.144534 C 90.902378,45.144538 94,48.242157 94,52 c 1e-5,3.757843 -3.097613,6.855466 -6.855466,6.855466 H 70.855466 V 75.144534 C 70.855466,78.902378 67.757853,82 64,82 60.242157,82 57.144538,78.902378 57.144532,75.144534 V 58.855466 H 40.855468 C 37.097614,58.855466 33.999994,55.757853 34,52 c 0,-3.757843 3.09762,-6.855468 6.855468,-6.855468 H 57.144532 V 28.855468 C 57.144532,25.097626 60.242157,22.000006 64,22 Z"
     style="fill:#ffffff;fill-opacity:1;stroke:none;stroke-width:0" />
</svg>
